<?xml version="1.0" encoding="UTF-8" standalone="no"?>
<svg
   xmlns:dc="http://purl.org/dc/elements/1.1/"
   xmlns:cc="http://creativecommons.org/ns#"
   xmlns:rdf="http://www.w3.org/1999/02/22-rdf-syntax-ns#"
   xmlns:svg="http://www.w3.org/2000/svg"
   xmlns="http://www.w3.org/2000/svg"
   xmlns:sodipodi="http://sodipodi.sourceforge.net/DTD/sodipodi-0.dtd"
   xmlns:inkscape="http://www.inkscape.org/namespaces/inkscape"
   viewBox="0 0 42 24"
   height="24"
   width="42"
   xml:space="preserve"
   id="svg2"
   version="1.1"
   inkscape:version="0.48.4 r9939"
   sodipodi:docname="logo.svg"><sodipodi:namedview
     pagecolor="#ffffff"
     bordercolor="#666666"
     borderopacity="1"
     objecttolerance="10"
     gridtolerance="10"
     guidetolerance="10"
     inkscape:pageopacity="0"
     inkscape:pageshadow="2"
     inkscape:window-width="1366"
     inkscape:window-height="718"
     id="namedview174"
     showgrid="false"
     width="744.09px"
     inkscape:zoom="8.8304744"
     inkscape:cx="15.658221"
     inkscape:cy="0.83635452"
     inkscape:window-x="0"
     inkscape:window-y="0"
     inkscape:window-maximized="1"
     inkscape:current-layer="g10" /><metadata
     id="metadata8"><rdf:RDF><cc:Work
         rdf:about=""><dc:format>image/svg+xml</dc:format><dc:type
           rdf:resource="http://purl.org/dc/dcmitype/StillImage" /></cc:Work></rdf:RDF></metadata><defs
     id="defs6"><clipPath
       id="clipPath18"
       clipPathUnits="userSpaceOnUse"><path
         id="path16"
         d="M 0,453.549 H 300 V 0 H 0 z"
         inkscape:connector-curvature="0" /></clipPath><clipPath
       id="clipPath62"
       clipPathUnits="userSpaceOnUse"><path
         id="path60"
         d="M 0,453.549 H 300 V 0 H 0 z"
         inkscape:connector-curvature="0" /></clipPath></defs><g
     transform="matrix(1.5278179,0,0,-1.5278179,-23.735961,25.803061)"
     id="g10"><g
       transform="scale(0.71968568,-1.3894955)"
       style="font-size:3.92634797px;font-variant:normal;font-weight:600;font-stretch:normal;writing-mode:lr-tb;fill:#ff4400;fill-opacity:1;fill-rule:nonzero;stroke:none;font-family:Windsor;-inkscape-font-specification:WindsorDemi"
       id="text50"><path
         d="m 25.401729,-9.5606246 c -3e-6,0.058895 -0.01636,0.098159 -0.04908,0.1177904 -0.03272,0.017451 -0.106886,0.026176 -0.222493,0.026176 l -0.706742,0 c -0.115611,0 -0.189776,-0.00873 -0.222493,-0.026176 -0.03272,-0.019632 -0.04908,-0.058895 -0.04908,-0.1177904 -1e-6,-0.039263 0.01963,-0.071983 0.0589,-0.098159 0.01309,-0.00654 0.06216,-0.028357 0.147238,-0.065439 0.05671,-0.023994 0.08507,-0.066529 0.08507,-0.1276063 l 0,-0.5922243 c -2e-6,-0.07853 -0.012,-0.128696 -0.03599,-0.15051 -0.024,-0.02399 -0.07853,-0.03599 -0.163598,-0.03599 l -0.732918,0 c -0.08071,10e-7 -0.130879,0.01091 -0.15051,0.03272 -0.01745,0.01963 -0.02618,0.07417 -0.02618,0.163598 l 0,0.5824083 c -1e-6,0.05017 0.03599,0.095978 0.107975,0.1374221 0.04799,0.021813 0.09489,0.044717 0.140694,0.068711 0.02399,0.015269 0.03599,0.043626 0.03599,0.085071 -10e-7,0.054533 -0.01745,0.092706 -0.05235,0.1145185 -0.0349,0.019632 -0.107976,0.029448 -0.219221,0.029448 l -0.706743,0 c -0.115609,0 -0.189773,-0.00873 -0.222493,-0.026176 -0.03054,-0.019632 -0.04581,-0.058895 -0.04581,-0.1177904 0,-0.039263 0.01527,-0.069801 0.04581,-0.091615 0.0087,-0.00654 0.0578,-0.028357 0.147238,-0.065439 0.06762,-0.028357 0.101431,-0.073073 0.101431,-0.1341502 l 0,-1.7930323 c 0,-0.03926 -0.02836,-0.07416 -0.08507,-0.104703 -0.05017,-0.02181 -0.10034,-0.04362 -0.15051,-0.06544 -0.03926,-0.02617 -0.05889,-0.05998 -0.05889,-0.10143 0,-0.05453 0.01636,-0.09052 0.04908,-0.107975 0.03272,-0.01745 0.105793,-0.02617 0.219221,-0.02618 l 0.706743,0 c 0.113427,3e-6 0.1865,0.0087 0.219221,0.02618 0.0349,0.01745 0.05235,0.05344 0.05235,0.107975 -10e-7,0.03927 -0.012,0.06762 -0.03599,0.08507 -0.01527,0.01091 -0.06326,0.0349 -0.143966,0.07198 -0.0698,0.03054 -0.104704,0.06871 -0.104703,0.114518 l 0,0.48425 c -1e-6,0.06762 0.0076,0.110157 0.0229,0.127606 0.01527,0.01745 0.04799,0.02618 0.09816,0.02618 l 0.788541,0 c 0.09379,10e-7 0.150508,-0.0076 0.170142,-0.0229 0.01963,-0.01745 0.02944,-0.06762 0.02945,-0.15051 l 0,-0.464618 c -2e-6,-0.0349 -0.0076,-0.05889 -0.0229,-0.07198 -0.01527,-0.01309 -0.05453,-0.03163 -0.117791,-0.05562 -0.06108,-0.02617 -0.09925,-0.0458 -0.114518,-0.0589 -0.024,-0.01963 -0.03599,-0.04799 -0.03599,-0.08507 -1e-6,-0.05453 0.01309,-0.09052 0.03926,-0.107975 0.02836,-0.01745 0.09597,-0.02617 0.202861,-0.02618 l 0.75255,0 c 0.111244,3e-6 0.181045,0.0087 0.209405,0.02618 0.03054,0.01745 0.04581,0.05344 0.04581,0.107975 -3e-6,0.03708 -0.012,0.06544 -0.03599,0.08507 -0.01527,0.01091 -0.06435,0.0349 -0.147238,0.07198 -0.07199,0.03272 -0.107977,0.07089 -0.107974,0.114518 l 0,1.7930323 c -3e-6,0.058896 0.0458,0.1079749 0.137422,0.147238 0.06762,0.030539 0.106881,0.05017 0.11779,0.058895 0.02399,0.017451 0.03599,0.045808 0.03599,0.085071"
         style="fill:#ff4400"
         id="path2995" /><path
         d="m 28.661319,-11.929521 c -2e-6,0.05235 -0.01745,0.08944 -0.05235,0.111246 -0.07417,0.02618 -0.115612,0.04145 -0.124335,0.04581 -0.03708,0.024 -0.05562,0.06108 -0.05562,0.111246 -2e-6,0.01527 0.01418,0.211589 0.04254,0.588952 0.02835,0.377367 0.04253,0.647849 0.04254,0.811446 -2e-6,0.3184707 -0.07526,0.5453261 -0.225765,0.6805667 -0.167962,0.15051 -0.459166,0.2257649 -0.873612,0.225765 -0.394817,-1e-7 -0.695837,-0.073074 -0.90306,-0.2192211 -0.185411,-0.1352406 -0.278117,-0.315198 -0.278117,-0.5398726 0,-0.100339 0.02072,-0.371912 0.06217,-0.814717 0.04363,-0.442803 0.06544,-0.677293 0.06544,-0.703471 -1e-6,-0.0698 -0.03054,-0.115607 -0.09162,-0.137422 -0.06762,-0.03272 -0.105793,-0.05235 -0.114519,-0.0589 -0.02836,-0.02399 -0.04254,-0.0578 -0.04254,-0.10143 0,-0.04799 0.01745,-0.07962 0.05235,-0.09489 0.0349,-0.01745 0.09707,-0.02617 0.186502,-0.02618 l 0.706742,0 c 0.109065,3e-6 0.178866,0.0076 0.209406,0.0229 0.03054,0.01309 0.04581,0.04581 0.04581,0.09816 -10e-7,0.05672 -0.04254,0.103614 -0.127606,0.140694 -0.0589,0.024 -0.09489,0.04908 -0.107975,0.07526 -0.01309,0.024 -0.02618,0.08616 -0.03926,0.186501 -0.05453,0.423175 -0.0818,0.819082 -0.0818,1.187721 -1e-6,0.20068 0.03817,0.3500997 0.114518,0.4482578 0.08725,0.1134282 0.233399,0.170142 0.438442,0.1701417 0.226854,3e-7 0.381727,-0.045807 0.464618,-0.1374221 0.07852,-0.08507 0.117789,-0.2399424 0.117791,-0.4646174 -2e-6,-0.425354 -0.02291,-0.835438 -0.06871,-1.230256 -0.01527,-0.124332 -0.03163,-0.191953 -0.04908,-0.202862 -0.05235,-0.01527 -0.111248,-0.04253 -0.176685,-0.0818 -0.02836,-0.01963 -0.04254,-0.05017 -0.04254,-0.09161 -2e-6,-0.08071 0.07525,-0.12106 0.225765,-0.121063 l 0.46789,0 c 0.07634,3e-6 0.130876,0.0087 0.163598,0.02618 0.03272,0.01527 0.04908,0.0469 0.04908,0.09489"
         style="fill:#ff4400"
         id="path2997" /><path
         d="m 33.418764,-9.5704405 c -5e-6,0.058895 -0.01964,0.099249 -0.0589,0.1210624 -0.03709,0.021813 -0.11125,0.03272 -0.222493,0.03272 l -0.631487,0 c -0.126519,0 -0.209409,-0.00873 -0.248669,-0.026176 -0.03927,-0.01745 -0.0589,-0.054533 -0.05889,-0.1112465 -3e-6,-0.041445 0.03817,-0.085071 0.114518,-0.1308782 0.07852,-0.047988 0.117788,-0.077436 0.117791,-0.088343 -3e-6,-0.074164 -0.09162,-0.4624352 -0.274845,-1.1648162 l -0.762366,1.4592923 c -0.024,0.043626 -0.05781,0.065439 -0.10143,0.065439 -0.04581,-1e-7 -0.07853,-0.020722 -0.09816,-0.062167 l -0.716559,-1.4625643 -0.327195,1.1124649 c -0.01091,0.03272 0.01309,0.077437 0.07198,0.1341502 0.05889,0.056714 0.08834,0.1014309 0.08834,0.1341503 -1e-6,0.093796 -0.05562,0.1406941 -0.16687,0.1406941 l -0.592224,0 c -0.109066,0 -0.163598,-0.045807 -0.163598,-0.1374222 0,-0.069802 0.03926,-0.1188808 0.11779,-0.147238 0.08725,-0.032719 0.138513,-0.074164 0.153782,-0.1243344 l 0.523513,-1.7275929 c 0.0065,-0.02617 0.0098,-0.04253 0.0098,-0.04908 -10e-7,-0.02835 -0.03381,-0.07089 -0.10143,-0.127606 -0.06544,-0.05889 -0.09816,-0.107972 -0.09816,-0.147238 -1e-6,-0.115606 0.07962,-0.173411 0.238853,-0.173414 l 0.611856,0 c 0.17014,3e-6 0.255211,0.05454 0.255212,0.163598 -1e-6,0.05017 -0.02618,0.102524 -0.07853,0.157054 -0.05235,0.05453 -0.07853,0.08616 -0.07853,0.09489 -1e-6,0.01091 0.0044,0.02727 0.01309,0.04908 l 0.50061,1.047026 0.523513,-1.017578 c 0.0065,-0.01963 0.0098,-0.03817 0.0098,-0.05562 -2e-6,-0.01091 -0.03381,-0.04908 -0.10143,-0.114519 -0.06544,-0.06762 -0.09816,-0.117788 -0.09816,-0.15051 -2e-6,-0.115606 0.08943,-0.173411 0.268301,-0.173414 l 0.592224,0 c 0.104699,3e-6 0.174501,0.012 0.209405,0.03599 0.0349,0.024 0.05235,0.06544 0.05235,0.124334 -3e-6,0.04581 -0.0349,0.103615 -0.104702,0.173414 -0.06762,0.0698 -0.09816,0.119974 -0.09161,0.15051 l 0.441714,1.7275931 c 0.0065,0.028357 0.05344,0.070893 0.140694,0.1276063 0.0807,0.052351 0.121058,0.099249 0.121063,0.1406941"
         style="fill:#ff4400"
         id="path2999" /><path
         d="m 38.177507,-9.5704405 c -4e-6,0.058895 -0.01964,0.099249 -0.05889,0.1210624 -0.03709,0.021813 -0.111251,0.03272 -0.222493,0.03272 l -0.631488,0 c -0.126519,0 -0.209408,-0.00873 -0.248669,-0.026176 -0.03927,-0.01745 -0.0589,-0.054533 -0.05889,-0.1112465 -3e-6,-0.041445 0.03817,-0.085071 0.114518,-0.1308782 0.07852,-0.047988 0.117788,-0.077436 0.117791,-0.088343 -3e-6,-0.074164 -0.09162,-0.4624352 -0.274844,-1.1648162 l -0.762366,1.4592923 c -0.024,0.043626 -0.05781,0.065439 -0.101431,0.065439 -0.04581,-1e-7 -0.07853,-0.020722 -0.09816,-0.062167 l -0.716558,-1.4625643 -0.327196,1.1124649 c -0.01091,0.03272 0.01309,0.077437 0.07198,0.1341502 0.05889,0.056714 0.08834,0.1014309 0.08834,0.1341503 -10e-7,0.093796 -0.05562,0.1406941 -0.16687,0.1406941 l -0.592224,0 c -0.109065,0 -0.163598,-0.045807 -0.163598,-0.1374222 0,-0.069802 0.03926,-0.1188808 0.117791,-0.147238 0.08725,-0.032719 0.138512,-0.074164 0.153782,-0.1243344 l 0.523513,-1.7275929 c 0.0065,-0.02617 0.0098,-0.04253 0.0098,-0.04908 -10e-7,-0.02835 -0.03381,-0.07089 -0.101431,-0.127606 -0.06544,-0.05889 -0.09816,-0.107972 -0.09816,-0.147238 0,-0.115606 0.07962,-0.173411 0.238853,-0.173414 l 0.611856,0 c 0.17014,3e-6 0.255211,0.05454 0.255213,0.163598 -2e-6,0.05017 -0.02618,0.102524 -0.07853,0.157054 -0.05235,0.05453 -0.07853,0.08616 -0.07853,0.09489 -2e-6,0.01091 0.0044,0.02727 0.01309,0.04908 l 0.50061,1.047026 0.523513,-1.017578 c 0.0065,-0.01963 0.0098,-0.03817 0.0098,-0.05562 -3e-6,-0.01091 -0.03381,-0.04908 -0.101431,-0.114519 -0.06544,-0.06762 -0.09816,-0.117788 -0.09816,-0.15051 -2e-6,-0.115606 0.08943,-0.173411 0.268301,-0.173414 l 0.592224,0 c 0.104699,3e-6 0.174501,0.012 0.209405,0.03599 0.0349,0.024 0.05235,0.06544 0.05235,0.124334 -4e-6,0.04581 -0.03491,0.103615 -0.104703,0.173414 -0.06762,0.0698 -0.09816,0.119974 -0.09162,0.15051 l 0.441714,1.7275931 c 0.0065,0.028357 0.05344,0.070893 0.140694,0.1276063 0.08071,0.052351 0.121059,0.099249 0.121063,0.1406941"
         style="fill:#ff4400"
         id="path3001" /><path
         d="m 40.109264,-9.5638966 c -1e-6,0.058895 -0.02291,0.099249 -0.06871,0.1210624 -0.03708,0.015269 -0.104703,0.022904 -0.202861,0.022904 l -0.693655,0 c -0.109065,0 -0.179958,-0.00982 -0.212677,-0.029448 -0.03054,-0.019632 -0.04581,-0.057804 -0.04581,-0.1145185 0,-0.056714 0.04799,-0.1036117 0.143966,-0.1406941 0.09816,-0.039263 0.147237,-0.092705 0.147238,-0.1603259 l 0,-1.7275934 c -1e-6,-0.06107 -0.03599,-0.106881 -0.107975,-0.137422 -0.122153,-0.05453 -0.183229,-0.107972 -0.183229,-0.160326 0,-0.06107 0.01527,-0.102518 0.04581,-0.124334 0.03272,-0.02399 0.103612,-0.03599 0.212677,-0.03599 l 0.693655,0 c 0.111245,3e-6 0.184319,0.012 0.219221,0.03599 0.0349,0.02182 0.05235,0.06326 0.05235,0.124334 -1e-6,0.03708 -0.012,0.06435 -0.03599,0.0818 -0.01527,0.01309 -0.05453,0.03272 -0.117791,0.05889 -0.07417,0.03272 -0.111247,0.08507 -0.111246,0.157054 l 0,1.7275934 c -1e-6,0.045808 0.0044,0.077437 0.01309,0.094887 0.01309,0.023995 0.04472,0.045808 0.09489,0.065439 0.06762,0.026176 0.107974,0.044717 0.121063,0.055623 0.02399,0.017451 0.03599,0.045808 0.03599,0.085071"
         style="fill:#ff4400"
         id="path3003" /><path
         d="m 43.699909,-11.906618 c -3e-6,0.0349 -0.01091,0.06217 -0.03272,0.0818 -0.02182,0.01963 -0.07526,0.04472 -0.160325,0.07526 -0.05235,0.03054 -0.07853,0.07962 -0.07853,0.147238 l 0,2.0842368 c -3e-6,0.065439 -0.02945,0.098159 -0.08834,0.098159 l -0.238853,0 c -0.06762,0 -0.101433,-0.03272 -0.101431,-0.098159 l 0,-0.1570539 c -2e-6,-0.047988 -0.0055,-0.081799 -0.01636,-0.1014306 -0.0087,-0.019631 -0.04472,-0.063257 -0.107974,-0.1308783 l -1.348046,-1.420029 0,1.4592925 c -10e-7,0.071983 0.04253,0.1254253 0.127606,0.1603259 0.06762,0.026176 0.106883,0.043626 0.117791,0.052351 0.02181,0.017451 0.03272,0.047989 0.03272,0.091615 -1e-6,0.054533 -0.01527,0.091615 -0.04581,0.1112466 -0.03708,0.021813 -0.112338,0.03272 -0.225765,0.03272 l -0.438442,0 c -0.111247,0 -0.18323,-0.00982 -0.21595,-0.029448 -0.03054,-0.019632 -0.04581,-0.057804 -0.04581,-0.1145185 0,-0.045807 0.01745,-0.080708 0.05235,-0.1047026 0.01309,-0.00872 0.05126,-0.025085 0.114519,-0.049079 0.07198,-0.026175 0.107974,-0.076345 0.107974,-0.15051 l 0,-1.7341375 c 0,-0.07198 -0.03054,-0.12106 -0.09161,-0.147238 -0.07417,-0.03054 -0.112338,-0.0469 -0.114519,-0.04908 -0.04581,-0.02617 -0.06871,-0.06217 -0.06871,-0.107975 0,-0.05671 0.01636,-0.09379 0.04908,-0.111246 0.03272,-0.01963 0.103612,-0.02945 0.212678,-0.02945 l 0.628215,0 c 0.05017,3e-6 0.09489,0.01854 0.13415,0.05562 l 1.141913,1.099377 0,-0.710015 c -2e-6,-0.07198 -0.03054,-0.12106 -0.09161,-0.147238 -0.0698,-0.02617 -0.109067,-0.04253 -0.11779,-0.04908 -0.04363,-0.02617 -0.06544,-0.06217 -0.06544,-0.107975 -2e-6,-0.05671 0.01636,-0.09379 0.04908,-0.111246 0.03272,-0.01963 0.105791,-0.02945 0.219221,-0.02945 l 0.441715,0 c 0.111243,3e-6 0.183226,0.0098 0.215949,0.02945 0.03272,0.01745 0.04908,0.05453 0.04908,0.111246"
         style="fill:#ff4400"
         id="path3005" /><path
         d="m 47.313462,-10.650186 c -3e-6,0.05453 -0.03054,0.101432 -0.09162,0.140694 -0.07199,0.04581 -0.110158,0.07198 -0.114518,0.07853 -0.01309,0.02836 -0.01964,0.05672 -0.01963,0.08507 l 0,0.4973372 c -3e-6,0.047989 0.03599,0.101431 0.107975,0.1603259 0.07198,0.058895 0.107971,0.1014308 0.107974,0.1276063 -3e-6,0.067621 -0.01309,0.1090653 -0.03926,0.1243344 -0.02618,0.013088 -0.09707,0.019632 -0.212678,0.019632 l -0.58568,0 c -1.365497,0 -2.048245,-0.4340792 -2.048245,-1.3022385 0,-0.379546 0.139604,-0.693653 0.418811,-0.942324 0.287931,-0.25521 0.664206,-0.382816 1.128825,-0.382819 0.03708,3e-6 0.215947,0.01091 0.536601,0.03272 0.01527,2e-6 0.0458,-0.01854 0.09161,-0.05562 0.04581,-0.03926 0.07634,-0.05889 0.09161,-0.0589 0.0349,3e-6 0.07307,0.01745 0.114519,0.05235 0.01963,0.01963 0.07525,0.138515 0.16687,0.356643 0.09379,0.215951 0.140691,0.338104 0.140694,0.366459 -3e-6,0.05017 -0.0065,0.08398 -0.01963,0.101431 -0.01309,0.01745 -0.04254,0.02618 -0.08834,0.02618 -0.185413,-0.152689 -0.340286,-0.263935 -0.464618,-0.333739 -0.178869,-0.09597 -0.351191,-0.143964 -0.516969,-0.143966 -0.209406,2e-6 -0.38282,0.0698 -0.520241,0.209405 -0.163599,0.1636 -0.245398,0.39809 -0.245397,0.703471 -10e-7,0.322834 0.08398,0.571502 0.251941,0.746006 0.150509,0.1548729 0.341373,0.2323091 0.572592,0.2323087 l 0.16687,0 c 0.07634,4e-7 0.128695,-0.015269 0.157054,-0.045807 0.02836,-0.032719 0.04253,-0.090524 0.04254,-0.1734133 l 0,-0.31738 c -3e-6,-0.07416 -0.04472,-0.127605 -0.134151,-0.160326 -0.0589,-0.02181 -0.08834,-0.0698 -0.08834,-0.143966 -10e-7,-0.08507 0.07198,-0.127605 0.21595,-0.127606 l 0.657663,0 c 0.146144,10e-7 0.219218,0.04254 0.219221,0.127606"
         style="fill:#ff4400"
         id="path3007" /><path
         d="m 50.61224,-10.169209 c -3e-6,0.4995194 -0.43081,0.7492785 -1.292423,0.7492785 l -1.024123,0 c -0.115609,0 -0.188682,-0.00763 -0.219221,-0.022904 -0.03054,-0.01745 -0.04581,-0.055623 -0.04581,-0.1145184 0,-0.043626 0.01636,-0.077436 0.04908,-0.1014307 0.01527,-0.00873 0.05453,-0.025085 0.117791,-0.049079 0.07198,-0.026175 0.107974,-0.074164 0.107974,-0.1439661 l 0,-1.7243213 c 0,-0.08071 -0.03381,-0.133057 -0.10143,-0.157054 -0.06762,-0.02399 -0.107975,-0.04144 -0.121063,-0.05235 -0.02617,-0.01745 -0.03926,-0.0458 -0.03926,-0.08507 0,-0.119969 0.110156,-0.179955 0.330467,-0.179958 l 0.755822,0 c 0.3032,3e-6 0.548597,0.05999 0.736191,0.179958 0.189771,0.119974 0.284658,0.278119 0.28466,0.474434 -2e-6,0.106886 -0.02291,0.194138 -0.06871,0.261756 -0.03272,0.04799 -0.09816,0.107976 -0.196318,0.179958 0.233398,0.08725 0.403539,0.178868 0.510426,0.274844 0.143963,0.133061 0.215946,0.303203 0.215949,0.510425 m -1.161545,-1.220439 c -1e-6,-0.202859 -0.113429,-0.30429 -0.340283,-0.304292 -0.0589,2e-6 -0.09707,0.0076 -0.114519,0.0229 -0.01527,0.01527 -0.0229,0.04472 -0.0229,0.08834 l 0,0.395907 c 0,0.03927 0.0076,0.06544 0.0229,0.07853 0.01527,0.01091 0.05344,0.01636 0.114519,0.01636 0.226854,1e-6 0.340282,-0.09925 0.340283,-0.297748 m 0.340284,1.122281 c -2e-6,-0.159234 -0.05017,-0.292294 -0.15051,-0.399179 -0.100342,-0.106883 -0.235583,-0.160324 -0.405723,-0.160326 -0.11561,2e-6 -0.188684,0.01091 -0.219221,0.03272 -0.02836,0.01963 -0.04254,0.0589 -0.04254,0.11779 l 0,0.7918137 c 0,0.063258 0.01309,0.104703 0.03926,0.1243344 0.02836,0.017451 0.09816,0.026176 0.209405,0.026176 0.379546,3e-7 0.569319,-0.1777758 0.569321,-0.5333287"
         style="fill:#ff4400"
         id="path3009" /><path
         d="m 52.536198,-9.5638966 c -2e-6,0.058895 -0.02291,0.099249 -0.06871,0.1210624 -0.03708,0.015269 -0.104703,0.022904 -0.202861,0.022904 l -0.693655,0 c -0.109065,0 -0.179957,-0.00982 -0.212677,-0.029448 -0.03054,-0.019632 -0.04581,-0.057804 -0.04581,-0.1145185 0,-0.056714 0.04799,-0.1036117 0.143966,-0.1406941 0.09816,-0.039263 0.147238,-0.092705 0.147238,-0.1603259 l 0,-1.7275934 c 0,-0.06107 -0.03599,-0.106881 -0.107975,-0.137422 -0.122153,-0.05453 -0.183229,-0.107972 -0.183229,-0.160326 0,-0.06107 0.01527,-0.102518 0.04581,-0.124334 0.03272,-0.02399 0.103612,-0.03599 0.212677,-0.03599 l 0.693655,0 c 0.111246,3e-6 0.184319,0.012 0.219221,0.03599 0.0349,0.02182 0.05235,0.06326 0.05235,0.124334 -2e-6,0.03708 -0.012,0.06435 -0.03599,0.0818 -0.01527,0.01309 -0.05453,0.03272 -0.11779,0.05889 -0.07417,0.03272 -0.111248,0.08507 -0.111247,0.157054 l 0,1.7275934 c -10e-7,0.045808 0.0044,0.077437 0.01309,0.094887 0.01309,0.023995 0.04472,0.045808 0.09489,0.065439 0.06762,0.026176 0.107973,0.044717 0.121062,0.055623 0.02399,0.017451 0.03599,0.045808 0.03599,0.085071"
         style="fill:#ff4400"
         id="path3011" /><path
         d="m 56.097402,-9.5606246 c -3e-6,0.058895 -0.01527,0.097068 -0.04581,0.1145185 -0.03054,0.01745 -0.102524,0.026176 -0.215949,0.026176 l -0.703471,0 c -0.113429,0 -0.187594,-0.00873 -0.222493,-0.026176 -0.03272,-0.019632 -0.04908,-0.057804 -0.04908,-0.1145185 -2e-6,-0.037082 0.03054,-0.078527 0.09161,-0.1243343 0.03708,-0.028357 0.07525,-0.056714 0.114519,-0.085071 -0.03272,-0.05017 -0.154874,-0.1777758 -0.366459,-0.3828192 -0.05235,0.0044 -0.09707,0.0065 -0.13415,0.0065 -0.170143,10e-7 -0.291206,-0.01527 -0.363188,-0.04581 l 0,0.3337394 c -10e-7,0.045808 0.02399,0.085071 0.07198,0.1177904 0.02181,0.015269 0.07416,0.041445 0.157054,0.078527 0.03926,0.026176 0.05889,0.059986 0.0589,0.1014306 -2e-6,0.056714 -0.01636,0.094887 -0.04908,0.1145185 -0.03272,0.01745 -0.105794,0.026176 -0.219221,0.026176 l -0.703471,0 c -0.115609,0 -0.189773,-0.00873 -0.222493,-0.026176 -0.03272,-0.019632 -0.04908,-0.057804 -0.04908,-0.1145185 0,-0.041445 0.01745,-0.074164 0.05235,-0.098159 0.01745,-0.010906 0.06544,-0.031629 0.143966,-0.062167 0.06108,-0.023994 0.09161,-0.069801 0.09161,-0.1374221 l 0,-1.7341374 c 0,-0.0698 -0.04145,-0.12215 -0.124334,-0.157054 -0.06326,-0.02835 -0.10034,-0.0469 -0.111247,-0.05562 -0.02399,-0.01745 -0.03599,-0.0458 -0.03599,-0.08507 0,-0.106881 0.107974,-0.160323 0.323924,-0.160326 l 0.539872,0 c 1.262974,3e-6 1.894461,0.352283 1.894463,1.056842 -2e-6,0.346829 -0.206136,0.58241 -0.618399,0.706743 l 0.474433,0.5398729 c 0.03926,0.017451 0.07743,0.03381 0.114519,0.049079 0.0698,0.039264 0.104699,0.085071 0.104702,0.1374222 M 55.20743,-11.082084 c -2e-6,-0.42099 -0.235582,-0.631486 -0.706743,-0.631488 -0.119972,2e-6 -0.19959,0.0087 -0.238852,0.02618 -0.03927,0.01527 -0.0589,0.05126 -0.0589,0.107974 l 0,0.899788 c -10e-7,0.13088 0.11779,0.196319 0.353372,0.196318 0.434078,1e-6 0.651117,-0.199588 0.651119,-0.598768"
         style="fill:#ff4400"
         id="path3013" /><path
         d="m 59.589275,-10.64037 c -3e-6,0.8136267 -0.495158,1.2204395 -1.485468,1.2204395 l -1.040482,0 c -0.111247,0 -0.18323,-0.00873 -0.215949,-0.026176 -0.03272,-0.019632 -0.04908,-0.057804 -0.04908,-0.1145185 0,-0.043626 0.01745,-0.077436 0.05235,-0.1014306 0.01527,-0.010906 0.05453,-0.029447 0.117791,-0.055623 0.08289,-0.030538 0.124334,-0.079617 0.124334,-0.1472381 l 0,-1.7930324 c 0,-0.03054 -0.02945,-0.06217 -0.08834,-0.09489 -0.07853,-0.02617 -0.128697,-0.04689 -0.15051,-0.06217 -0.03054,-0.02181 -0.04581,-0.05235 -0.04581,-0.09161 0,-0.05017 0.01091,-0.08398 0.03272,-0.10143 0.03272,-0.02835 0.104702,-0.04253 0.215949,-0.04254 l 0.382819,0 c 0.713285,3e-6 1.25752,0.134153 1.632706,0.402451 0.344644,0.246489 0.516966,0.58241 0.516969,1.007763 m -0.798357,-0.01963 c -2e-6,-0.263936 -0.07744,-0.497336 -0.232309,-0.700199 -0.154874,-0.202859 -0.334832,-0.304289 -0.539873,-0.304292 -0.126517,3e-6 -0.201772,0.0055 -0.225765,0.01636 -0.02181,0.01091 -0.03272,0.04145 -0.03272,0.09161 l 0,1.6261623 c -10e-7,0.076346 0.01091,0.1210628 0.03272,0.1341502 0.02181,0.013088 0.0927,0.019632 0.212677,0.019632 0.239942,3e-7 0.430806,-0.082889 0.572593,-0.2486683 0.141782,-0.165779 0.212675,-0.377365 0.212677,-0.63476"
         style="fill:#ff4400"
         id="path3015" /></g><g
       transform="scale(0.72775596,-1.374087)"
       style="font-size:9.41769695px;font-variant:normal;font-weight:600;font-stretch:normal;writing-mode:lr-tb;fill:#ff4400;fill-opacity:1;fill-rule:nonzero;stroke:none;font-family:Windsor;-inkscape-font-specification:WindsorDemi"
       id="text54"><path
         d="m 28.37763,-3.39804 c -6e-6,1.1981409 -1.033335,1.7972105 -3.099992,1.7972105 l -2.456449,0 c -0.277299,0 -0.452573,-0.018312 -0.525821,-0.054937 -0.07325,-0.041856 -0.109873,-0.1334172 -0.109873,-0.2746829 0,-0.1046406 0.03924,-0.1857374 0.117721,-0.2432905 0.03662,-0.020928 0.130801,-0.060168 0.282531,-0.1177212 0.172657,-0.062784 0.258986,-0.177889 0.258986,-0.3453155 l 0,-4.1359386 c 0,-0.1935807 -0.0811,-0.3191498 -0.24329,-0.3767079 -0.162194,-0.057547 -0.258987,-0.099403 -0.290379,-0.1255693 -0.06278,-0.041851 -0.09418,-0.1098673 -0.09418,-0.2040501 0,-0.2877568 0.264218,-0.4316381 0.792656,-0.4316444 l 1.812907,0 c 0.727252,6.3e-6 1.315857,0.1438876 1.765818,0.4316444 0.455184,0.2877686 0.682778,0.6670921 0.682783,1.1379717 -5e-6,0.2563751 -0.05494,0.4656571 -0.16481,0.6278465 -0.07849,0.1151092 -0.235447,0.2589905 -0.470885,0.4316444 0.559825,0.2092857 0.967925,0.4290317 1.224301,0.6592388 0.34531,0.319158 0.517967,0.7272578 0.517973,1.2243006 m -2.786068,-2.9273341 c -4e-6,-0.4865758 -0.27207,-0.7298661 -0.816201,-0.7298715 -0.141268,5.4e-6 -0.232828,0.018318 -0.274683,0.054937 -0.03663,0.03663 -0.05494,0.1072624 -0.05494,0.2118982 l 0,0.9496178 c -2e-6,0.094181 0.01831,0.1569657 0.05494,0.1883539 0.03662,0.026164 0.128183,0.039244 0.274683,0.03924 0.544131,4e-6 0.816197,-0.2380542 0.816201,-0.7141753 m 0.8162,2.6918917 c -4e-6,-0.3819375 -0.120341,-0.7010925 -0.361012,-0.9574659 -0.240678,-0.2563674 -0.565065,-0.3845525 -0.973162,-0.3845559 -0.277301,3.4e-6 -0.452575,0.026164 -0.525821,0.078481 -0.06802,0.047092 -0.102027,0.1412686 -0.102025,0.2825309 l 0,1.8992355 c -2e-6,0.1517306 0.03139,0.2511395 0.09418,0.2982271 0.06801,0.041857 0.23544,0.062785 0.502277,0.062785 0.910374,7e-7 1.365562,-0.4264112 1.365566,-1.2792372"
         style="fill:#ff4400"
         id="path3018" /><path
         d="m 35.57435,-3.1939899 c -6e-6,0.088946 -0.03663,0.1857393 -0.109873,0.290379 L 34.59334,-1.647918 c -0.11511,0.1674256 -0.245911,0.2511384 -0.392404,0.2511386 -0.0314,-2e-7 -0.125574,-0.034008 -0.282531,-0.102025 -0.156966,-0.068017 -0.285151,-0.1020251 -0.384556,-0.1020251 l -3.406067,0 c -0.209283,0 -0.350548,-0.028776 -0.423796,-0.086329 -0.06802,-0.057552 -0.102026,-0.1648094 -0.102026,-0.3217713 0,-0.1935854 0.141266,-0.3217706 0.423797,-0.3845559 0.172657,-0.036624 0.258986,-0.1386485 0.258987,-0.3060752 l 0,-4.1594828 c -1e-6,-0.1412601 -0.07848,-0.2537491 -0.235443,-0.3374675 -0.313923,-0.1098674 -0.470885,-0.2328206 -0.470885,-0.3688598 0,-0.1464914 0.03663,-0.2406683 0.109873,-0.2825309 0.07325,-0.04185 0.256371,-0.062778 0.549366,-0.062785 l 1.671641,0 c 0.2616,6.3e-6 0.429026,0.023551 0.502277,0.070633 0.07848,0.041863 0.117719,0.1334235 0.117722,0.2746828 -3e-6,0.109879 -0.10726,0.217136 -0.321772,0.3217713 -0.214516,0.099415 -0.321773,0.2275998 -0.321771,0.384556 l 0,3.986825 c -2e-6,0.2825319 0.128183,0.4237972 0.384556,0.4237964 l 0.447341,0 c 0.486577,8e-7 0.931301,-0.1072562 1.334173,-0.3217713 0.05755,-0.031391 0.468264,-0.2668333 1.232149,-0.7063273 0.19358,1.9e-6 0.290373,0.094179 0.290379,0.2825309"
         style="fill:#ff4400"
         id="path3020" /><path
         d="m 42.921745,-7.6203075 c -6e-6,0.1255752 -0.04186,0.2145201 -0.125569,0.2668348 -0.177896,0.06279 -0.277305,0.099415 -0.298227,0.1098731 -0.08895,0.057558 -0.133423,0.146503 -0.133418,0.2668348 -5e-6,0.03663 0.034,0.5075141 0.102025,1.4126545 0.06801,0.9051484 0.10202,1.5539224 0.102026,1.9463241 -6e-6,0.7638811 -0.180512,1.3080141 -0.541518,1.6324008 -0.402873,0.3610117 -1.101352,0.5415174 -2.095438,0.5415175 -0.947004,-10e-8 -1.669026,-0.1752738 -2.16607,-0.5258214 -0.444725,-0.3243866 -0.667087,-0.7560306 -0.667087,-1.2949333 0,-0.2406726 0.0497,-0.8920626 0.149114,-1.9541721 0.10464,-1.0621023 0.156961,-1.6245475 0.156961,-1.6873374 0,-0.1674202 -0.07325,-0.2772933 -0.219746,-0.3296194 -0.162194,-0.078475 -0.253755,-0.1255635 -0.274683,-0.1412654 -0.06802,-0.057547 -0.102025,-0.1386436 -0.102025,-0.2432906 0,-0.115099 0.04186,-0.1909637 0.12557,-0.2275943 0.08371,-0.04185 0.232826,-0.062778 0.44734,-0.062785 l 1.695186,0 c 0.2616,6.3e-6 0.429025,0.018318 0.502277,0.054937 0.07325,0.031399 0.10987,0.1098793 0.109873,0.2354424 -3e-6,0.1360393 -0.102028,0.2485284 -0.306075,0.3374675 -0.141268,0.057558 -0.227597,0.1177268 -0.258987,0.1805059 -0.0314,0.057558 -0.06279,0.2066714 -0.09418,0.4473406 -0.130803,1.0150225 -0.196204,1.9646393 -0.196202,2.8488533 -2e-6,0.4813507 0.09156,0.839746 0.274683,1.0751871 0.20928,0.2720676 0.559827,0.4081009 1.051643,0.4081002 0.544129,7e-7 0.915605,-0.1098723 1.114427,-0.3296194 0.188349,-0.2040489 0.282526,-0.5755243 0.282531,-1.1144275 -5e-6,-1.0202473 -0.05494,-2.0038724 -0.16481,-2.9508784 -0.03663,-0.2982216 -0.07587,-0.4604151 -0.117721,-0.486581 -0.125573,-0.036619 -0.266839,-0.1020193 -0.423796,-0.196202 -0.06802,-0.047083 -0.102029,-0.1203313 -0.102025,-0.2197463 -4e-6,-0.1935797 0.180502,-0.2903726 0.541517,-0.2903789 l 1.122276,0 c 0.183116,6.3e-6 0.313917,0.020935 0.392404,0.062785 0.07848,0.036631 0.117715,0.1124953 0.117721,0.2275943"
         style="fill:#ff4400"
         id="path3022" /><path
         d="m 50.730607,-3.0998129 c -6e-6,0.1151066 -0.02355,0.2092834 -0.07063,0.2825309 l -0.745567,1.2713891 c -0.04709,0.062784 -0.09418,0.1281851 -0.141266,0.196202 -0.06279,0.07848 -0.151735,0.1177208 -0.266834,0.1177212 0.0052,-4e-7 -0.09157,-0.062785 -0.290379,-0.1883539 -0.198823,-0.1203373 -0.361017,-0.1805059 -0.486581,-0.1805059 l -3.900497,0 c -0.287763,0 -0.470885,-0.018312 -0.549365,-0.054937 -0.07325,-0.041856 -0.109873,-0.1360333 -0.109873,-0.282531 0,-0.099409 0.03924,-0.1752732 0.117721,-0.2275943 0.02093,-0.015696 0.115105,-0.060168 0.282531,-0.1334174 0.188353,-0.07848 0.28253,-0.2014331 0.282531,-0.3688598 l 0,-4.2144194 c -1e-6,-0.14126 -0.05755,-0.2354369 -0.172658,-0.2825309 -0.167426,-0.052315 -0.274683,-0.094171 -0.321771,-0.1255693 -0.09941,-0.057547 -0.149114,-0.1386436 -0.149114,-0.2432905 0,-0.1412593 0.04709,-0.2380522 0.141265,-0.290379 0.09418,-0.057546 0.274683,-0.086323 0.541518,-0.086329 l 3.092144,0 c 0.09941,6.3e-6 0.251134,-0.04185 0.455189,-0.1255693 0.209277,-0.083706 0.329614,-0.1255628 0.361011,-0.1255693 0.151725,6.5e-6 0.285142,0.086335 0.400252,0.2589866 l 0.73772,1.1144275 c 0.06801,0.1046462 0.102019,0.196207 0.102025,0.2746828 -6e-6,0.1726626 -0.09418,0.2589914 -0.282531,0.2589867 -0.722028,-0.5755207 -1.412659,-0.8632834 -2.071893,-0.8632889 l -0.557214,0 c -0.303462,5.5e-6 -0.494432,0.041862 -0.57291,0.1255693 -0.07325,0.083718 -0.109875,0.277304 -0.109873,0.580758 l 0,0.3296194 c -2e-6,0.162198 0.02093,0.274687 0.06278,0.3374675 0.04185,0.057557 0.138647,0.086333 0.290379,0.086329 l 0.282531,0 c 0.167422,4.1e-6 0.319152,-0.078477 0.455188,-0.2354424 0.141262,-0.1621892 0.240671,-0.2432859 0.298227,-0.2432905 0.09941,4.6e-6 0.209279,0.073253 0.32962,0.2197463 l 0.753415,1.1458198 c 0.06278,0.09418 0.09417,0.1752768 0.09418,0.2432905 -4e-6,0.2040528 -0.102029,0.3060778 -0.306075,0.3060751 -0.104645,2.7e-6 -0.214518,-0.049702 -0.329619,-0.1491135 -0.376712,-0.3191522 -0.795276,-0.4787297 -1.255693,-0.4787329 -0.319158,3.2e-6 -0.497048,0.010467 -0.53367,0.031392 -0.08895,0.04186 -0.133419,0.2014371 -0.133417,0.4787329 l 0,1.3420218 c -2e-6,0.1988193 0.03924,0.3322365 0.117721,0.4002522 0.08371,0.062785 0.256368,0.094178 0.517974,0.094177 l 1.2243,0 c 0.47088,9e-7 0.868516,-0.094176 1.192909,-0.2825309 0.04185,-0.026159 0.363622,-0.2302089 0.965313,-0.6121503 0.172652,1.8e-6 0.258981,0.099411 0.258987,0.2982271"
         style="fill:#ff4400"
         id="path3024" /><path
         d="m 58.867573,-3.4686727 c -7e-6,0.6749361 -0.251145,1.1929089 -0.753416,1.55392 -0.455194,0.3296194 -1.062112,0.4944289 -1.820755,0.4944291 -0.308695,-2e-7 -0.795275,-0.060169 -1.459743,-0.1805059 -0.659241,-0.1255691 -0.98886,-0.1883537 -0.988858,-0.1883539 -0.05232,2e-7 -0.141267,0.062785 -0.266835,0.1883539 -0.12557,0.1203371 -0.238059,0.1805057 -0.337467,0.1805059 -0.115106,-2e-7 -0.222363,-0.065401 -0.321771,-0.196202 -0.06279,-0.083713 -0.172659,-0.2720666 -0.32962,-0.5650619 -0.38194,-0.7324862 -0.57291,-1.1510501 -0.57291,-1.2556929 0,-0.1674237 0.08633,-0.2511365 0.258987,-0.2511386 1.213835,0.8894504 2.385814,1.3341745 3.51594,1.3341738 0.376704,7e-7 0.680163,-0.081096 0.910378,-0.2432905 0.209277,-0.1464964 0.313918,-0.3296181 0.313923,-0.5493657 -5e-6,-0.2825291 -0.520594,-0.6723167 -1.561768,-1.169364 -0.722027,-0.3296164 -1.444049,-0.6592354 -2.166071,-0.9888582 -0.392405,-0.2197424 -0.588606,-0.6304582 -0.588606,-1.2321487 0,-0.4604153 0.170041,-0.8266587 0.510126,-1.0987313 0.345314,-0.2772926 0.837126,-0.4159418 1.475439,-0.4159483 0.334848,6.5e-6 0.680163,0.034015 1.035946,0.1020251 0.355776,0.068023 0.510121,0.1020313 0.463037,0.102025 0.05232,6.3e-6 0.141261,-0.049698 0.266835,-0.1491135 0.130797,-0.099403 0.230206,-0.149107 0.298227,-0.1491136 0.104636,6.6e-6 0.211893,0.060175 0.321771,0.1805059 0.03662,0.036631 0.164805,0.1988242 0.384556,0.486581 0.449951,0.5964594 0.674929,0.9522387 0.674935,1.067339 -6e-6,0.1621983 -0.06802,0.2432951 -0.20405,0.2432905 -0.779581,-0.4185593 -1.26093,-0.6670816 -1.444047,-0.7455677 -0.481353,-0.2197407 -0.886836,-0.3296137 -1.216452,-0.3296194 -0.418567,5.7e-6 -0.627849,0.143887 -0.627847,0.4316445 -2e-6,0.1674307 0.436874,0.4316492 1.31063,0.7926561 1.130118,0.4708888 1.833829,0.7952758 2.111134,0.973162 0.538894,0.3400867 0.808345,0.8659075 0.808352,1.5774643"
         style="fill:#ff4400"
         id="path3026" /></g><flowRoot
       xml:space="preserve"
       id="flowRoot3151"
       style="font-size:40px;font-style:normal;font-weight:normal;line-height:125%;letter-spacing:0px;word-spacing:0px;fill:#000000;fill-opacity:1;stroke:none;font-family:Sans"
       transform="matrix(0.75000002,0,0,-0.75000002,0,453.54901)"><flowRegion
         id="flowRegion3153"><rect
           id="rect3155"
           width="311.64804"
           height="141.32877"
           x="50.733402"
           y="398.17459" /></flowRegion><flowPara
         id="flowPara3157" /></flowRoot></g></svg>